<?xml version="1.0" encoding="utf-8"?>
<svg id="master-artboard" viewBox="0 0 1074.28564453125 157.1428680419922" xmlns="http://www.w3.org/2000/svg" width="1074.28564453125px" height="157.1428680419922px" version="1.1" style="shape-rendering:geometricPrecision; text-rendering:geometricPrecision; image-rendering:optimizeQuality; fill-rule:evenodd; clip-rule:evenodd"><rect id="ee-background" x="0" y="0" width="1074.28564453125" height="157.1428680419922" style="fill: white; fill-opacity: 0; pointer-events: none;"/><g transform="matrix(0.454852432012558, 0, 0, 0.454852432012558, -39.9999885559082, -41.41046142578125)"><g transform="scale(3.896103896103896) translate(10, 10)">
				<defs id="SvgjsDefs1038"><linearGradient id="SvgjsLinearGradient1043"><stop id="SvgjsStop1044" stop-color="#2d388a" offset="0"/><stop id="SvgjsStop1045" stop-color="#00aeef" offset="1"/></linearGradient></defs><g id="SvgjsG1039" featurekey="root" fill="#ffffff"/><g id="SvgjsG1041" featurekey="text1" fill="#141413" transform="matrix(5.285321235656738, 0, 0, 5.285321235656738, 11.756036006996396, -6.692474678312692)"><path d="M11.4 12.42 c1.14 0.72 1.76 1.78 1.76 3.06 c0 1.5 -0.58 2.66 -1.72 3.46 c-0.8 0.58 -1.86 0.92 -3.14 1.06 l-0.08 0 c-0.16 0 -0.34 -0.06 -0.46 -0.18 c-0.16 -0.14 -0.24 -0.32 -0.24 -0.52 l0 -1.44 c0 -0.36 0.28 -0.66 0.62 -0.7 c2.08 -0.24 2.08 -1.2 2.08 -1.62 c0 -0.3 -0.1 -0.5 -0.36 -0.68 c-0.4 -0.28 -0.9 -0.5 -1.5 -0.68 c-0.1 -0.02 -0.18 -0.06 -0.26 -0.08 l-0.06 -0.02 c-0.58 -0.16 -1.2 -0.32 -1.84 -0.46 c-0.24 -0.04 -0.5 -0.12 -0.8 -0.2 c-0.54 -0.14 -1.06 -0.32 -1.52 -0.5 c-0.76 -0.32 -1.42 -0.74 -1.94 -1.26 c-0.58 -0.58 -0.88 -1.36 -0.88 -2.32 c0 -1.32 0.52 -2.4 1.52 -3.22 c0.72 -0.6 1.7 -0.96 2.92 -1.12 c0.2 -0.02 0.4 0.04 0.56 0.18 c0.14 0.14 0.22 0.32 0.22 0.52 l0 1.44 c0 0.34 -0.24 0.64 -0.58 0.7 c-0.2 0.02 -0.36 0.06 -0.5 0.1 c-0.38 0.14 -0.66 0.28 -0.84 0.44 c-0.16 0.14 -0.26 0.28 -0.32 0.42 c-0.06 0.2 -0.1 0.42 -0.1 0.64 c0 0.06 0 0.16 0.18 0.34 c0.2 0.2 0.48 0.36 0.82 0.5 c0.24 0.1 0.54 0.2 0.84 0.3 c0.18 0.04 0.36 0.1 0.54 0.14 c0.56 0.14 1.12 0.28 1.7 0.42 c0.08 0.02 0.16 0.04 0.26 0.06 l0.12 0.04 c0.52 0.14 0.96 0.26 1.36 0.4 c0.6 0.2 1.16 0.46 1.64 0.78 z M8.06 7.9 c-0.32 -0.08 -0.54 -0.36 -0.54 -0.7 l0 -1.46 c0 -0.2 0.1 -0.4 0.26 -0.54 c0.14 -0.12 0.36 -0.18 0.56 -0.14 c1.16 0.18 2.12 0.58 2.86 1.2 c1 0.82 1.54 1.88 1.6 3.16 c0.02 0.2 -0.06 0.38 -0.18 0.52 c-0.14 0.14 -0.32 0.22 -0.52 0.22 l-1.56 0 c-0.34 0 -0.64 -0.26 -0.68 -0.62 c-0.08 -0.5 -0.3 -1.24 -1.64 -1.62 c-0.04 0 -0.06 0 -0.08 -0.02 l-0.08 0 z M5.72 17.08 c0.34 0.06 0.56 0.36 0.56 0.68 l0 1.48 c0 0.2 -0.08 0.4 -0.24 0.54 c-0.12 0.1 -0.28 0.16 -0.46 0.16 l-0.1 0 c-1.24 -0.18 -2.28 -0.6 -3.06 -1.22 c-1.02 -0.82 -1.62 -1.98 -1.76 -3.46 c-0.02 -0.2 0.04 -0.4 0.18 -0.54 c0.14 -0.16 0.32 -0.24 0.52 -0.24 l1.58 0 c0.38 0 0.68 0.3 0.7 0.66 c0.04 0.68 0.36 1.18 0.98 1.54 c0.32 0.18 0.68 0.3 1.1 0.4 z M22.22 5 c1.58 0 2.88 0.46 3.84 1.36 c0.98 0.92 1.46 2.16 1.46 3.66 c0 1.52 -0.48 2.74 -1.46 3.66 c-0.96 0.9 -2.26 1.34 -3.84 1.34 l-3.82 0 l0 4.08 c0 0.38 -0.32 0.7 -0.7 0.7 l-1.52 0 c-0.38 0 -0.7 -0.32 -0.7 -0.7 l0 -6.2 c0 -0.38 0.32 -0.7 0.7 -0.7 l5.92 0 c0.88 0 1.52 -0.18 1.92 -0.58 c0.4 -0.36 0.58 -0.9 0.58 -1.6 s-0.18 -1.22 -0.58 -1.6 s-1.04 -0.58 -1.92 -0.58 l-5.92 0 c-0.38 0 -0.7 -0.32 -0.7 -0.7 l0 -1.44 c0 -0.38 0.32 -0.7 0.7 -0.7 l6.04 0 z M42.72 18.86 c0.1 0.22 0.06 0.46 -0.06 0.66 c-0.14 0.2 -0.36 0.32 -0.58 0.32 l-13.32 0 c-0.24 0 -0.46 -0.12 -0.58 -0.32 c-0.14 -0.2 -0.16 -0.44 -0.06 -0.66 l0.62 -1.46 c0.1 -0.26 0.36 -0.44 0.64 -0.44 l9.32 0 l-0.6 -1.44 l-2.68 -6.4 l-2.68 6.4 c-0.1 0.26 -0.36 0.42 -0.64 0.42 l-1.68 0 c-0.24 0 -0.46 -0.12 -0.6 -0.32 c-0.12 -0.18 -0.14 -0.44 -0.06 -0.66 l4.06 -9.52 c0.1 -0.28 0.36 -0.44 0.64 -0.44 l1.92 0 c0.28 0 0.52 0.16 0.64 0.44 z M53.98 14.1 l3.02 4.62 c0.14 0.22 0.16 0.48 0.02 0.72 c-0.12 0.22 -0.36 0.36 -0.6 0.36 l-1.82 0 c-0.24 0 -0.46 -0.12 -0.58 -0.32 l-3.04 -4.82 l-3.56 0 l0 4.44 c0 0.38 -0.32 0.7 -0.7 0.7 l-1.52 0 c-0.38 0 -0.7 -0.32 -0.7 -0.7 l0 -6.58 c0 -0.38 0.32 -0.7 0.7 -0.7 l6.16 0 c1.16 0 1.94 -0.32 2.34 -1 c0.14 -0.22 0.2 -0.54 0.2 -0.92 c0 -0.66 -0.2 -1.12 -0.62 -1.48 c-0.44 -0.4 -1.06 -0.58 -1.84 -0.58 l-6.24 0 c-0.38 0 -0.7 -0.32 -0.7 -0.7 l0 -1.44 c0 -0.38 0.32 -0.7 0.7 -0.7 l6.42 0 c1.54 0 2.8 0.44 3.74 1.32 c0.98 0.88 1.46 2.08 1.46 3.58 c0 1.94 -0.86 3.34 -2.5 4.06 c-0.1 0.04 -0.22 0.1 -0.34 0.14 z M60.839999999999996 5 c0.4 0 0.72 0.32 0.72 0.72 l0 1.46 c0 0.4 -0.32 0.72 -0.72 0.72 l-2.06 0 c-0.38 0 -0.7 -0.32 -0.7 -0.72 l0 -1.46 c0 -0.4 0.32 -0.72 0.7 -0.72 l2.06 0 z M69.78 5 c0.38 0 0.7 0.32 0.7 0.72 l0 1.46 c0 0.4 -0.32 0.72 -0.7 0.72 l-4.02 0 l0 11.36 c0 0.38 -0.32 0.7 -0.7 0.7 l-1.54 0 c-0.4 0 -0.72 -0.32 -0.72 -0.7 l0 -13.54 c0 -0.4 0.32 -0.72 0.72 -0.72 l6.26 0 z M82.96 16.96 c0.4 0 0.7 0.32 0.7 0.72 l0 1.46 c0 0.38 -0.3 0.7 -0.7 0.7 l-9.88 0 c-0.38 0 -0.7 -0.32 -0.7 -0.7 l0 -1.46 c0 -0.4 0.32 -0.72 0.7 -0.72 l9.88 0 z M73.07999999999998 13.86 c-0.38 0 -0.7 -0.32 -0.7 -0.7 l0 -1.5 c0 -0.38 0.32 -0.7 0.7 -0.7 l8.98 0 c0.4 0 0.72 0.32 0.72 0.7 l0 1.5 c0 0.38 -0.32 0.7 -0.72 0.7 l-8.98 0 z M82.96 5 c0.4 0 0.7 0.32 0.7 0.7 l0 1.46 c0 0.4 -0.3 0.72 -0.7 0.72 l-9.88 0 c-0.38 0 -0.7 -0.32 -0.7 -0.72 l0 -1.46 c0 -0.38 0.32 -0.7 0.7 -0.7 l9.88 0 z M95.55999999999999 14.1 l3.02 4.62 c0.14 0.22 0.16 0.48 0.02 0.72 c-0.12 0.22 -0.36 0.36 -0.6 0.36 l-1.82 0 c-0.24 0 -0.46 -0.12 -0.58 -0.32 l-3.04 -4.82 l-3.56 0 l0 4.44 c0 0.38 -0.32 0.7 -0.7 0.7 l-1.52 0 c-0.38 0 -0.7 -0.32 -0.7 -0.7 l0 -6.58 c0 -0.38 0.32 -0.7 0.7 -0.7 l6.16 0 c1.16 0 1.94 -0.32 2.34 -1 c0.14 -0.22 0.2 -0.54 0.2 -0.92 c0 -0.66 -0.2 -1.12 -0.62 -1.48 c-0.44 -0.4 -1.06 -0.58 -1.84 -0.58 l-6.24 0 c-0.38 0 -0.7 -0.32 -0.7 -0.7 l0 -1.44 c0 -0.38 0.32 -0.7 0.7 -0.7 l6.42 0 c1.54 0 2.8 0.44 3.74 1.32 c0.98 0.88 1.46 2.08 1.46 3.58 c0 1.94 -0.86 3.34 -2.5 4.06 c-0.1 0.04 -0.22 0.1 -0.34 0.14 z M114.16 18.86 c0.1 0.22 0.06 0.46 -0.06 0.66 c-0.14 0.2 -0.36 0.32 -0.58 0.32 l-13.32 0 c-0.24 0 -0.46 -0.12 -0.58 -0.32 c-0.14 -0.2 -0.16 -0.44 -0.06 -0.66 l0.62 -1.46 c0.1 -0.26 0.36 -0.44 0.64 -0.44 l9.32 0 l-0.6 -1.44 l-2.68 -6.4 l-2.68 6.4 c-0.1 0.26 -0.36 0.42 -0.64 0.42 l-1.68 0 c-0.24 0 -0.46 -0.12 -0.6 -0.32 c-0.12 -0.18 -0.14 -0.44 -0.06 -0.66 l4.06 -9.52 c0.1 -0.28 0.36 -0.44 0.64 -0.44 l1.92 0 c0.28 0 0.52 0.16 0.64 0.44 z"/></g>
			</g></g></svg>